<mxfile host="app.diagrams.net" modified="2024-03-17T15:58:22.860Z" agent="Mozilla/5.0 (Windows NT 10.0; Win64; x64) AppleWebKit/537.36 (KHTML, like Gecko) Chrome/122.0.0.0 Safari/537.36" etag="WactOkpB7GqPem9RQyPK" version="24.0.6" type="device">
  <diagram name="Страница — 1" id="mmTvuKjoQsWb_jT_VWFC">
    <mxGraphModel dx="1050" dy="541" grid="1" gridSize="10" guides="1" tooltips="1" connect="1" arrows="1" fold="1" page="1" pageScale="1" pageWidth="827" pageHeight="1169" math="0" shadow="0">
      <root>
        <mxCell id="0" />
        <mxCell id="1" parent="0" />
        <mxCell id="VFIWKUcViMQ6ulHDsaaw-27" value="&lt;div style=&quot;box-sizing: border-box; width: 100%; background: rgb(228, 228, 228); padding: 2px; font-size: 14px;&quot;&gt;&lt;b&gt;product_category&lt;/b&gt;&lt;/div&gt;&lt;table cellspacing=&quot;0&quot; cellpadding=&quot;2&quot; style=&quot;width: 100%; font-size: 14px;&quot;&gt;&lt;tbody style=&quot;font-size: 14px;&quot;&gt;&lt;tr style=&quot;font-size: 14px;&quot;&gt;&lt;td style=&quot;font-size: 14px;&quot;&gt;PK&lt;/td&gt;&lt;td style=&quot;font-size: 14px;&quot;&gt;&lt;b&gt;&lt;u&gt;product_category_id&lt;/u&gt;&lt;/b&gt;&lt;br style=&quot;font-size: 14px;&quot;&gt;&lt;/td&gt;&lt;/tr&gt;&lt;tr style=&quot;font-size: 14px;&quot;&gt;&lt;td style=&quot;font-size: 14px;&quot;&gt;&lt;br&gt;&lt;/td&gt;&lt;td style=&quot;font-size: 14px;&quot;&gt;name&lt;/td&gt;&lt;/tr&gt;&lt;tr style=&quot;font-size: 14px;&quot;&gt;&lt;td style=&quot;font-size: 14px;&quot;&gt;&lt;/td&gt;&lt;td style=&quot;font-size: 14px;&quot;&gt;&lt;br style=&quot;font-size: 14px;&quot;&gt;&lt;/td&gt;&lt;/tr&gt;&lt;/tbody&gt;&lt;/table&gt;" style="verticalAlign=top;align=left;overflow=fill;html=1;whiteSpace=wrap;fontFamily=Times New Roman;fontSize=14;" vertex="1" parent="1">
          <mxGeometry x="70" y="60" width="180" height="90" as="geometry" />
        </mxCell>
        <mxCell id="VFIWKUcViMQ6ulHDsaaw-31" style="edgeStyle=orthogonalEdgeStyle;rounded=0;orthogonalLoop=1;jettySize=auto;html=1;entryX=1.013;entryY=0.21;entryDx=0;entryDy=0;entryPerimeter=0;" edge="1" parent="1" source="VFIWKUcViMQ6ulHDsaaw-28" target="VFIWKUcViMQ6ulHDsaaw-29">
          <mxGeometry relative="1" as="geometry">
            <Array as="points">
              <mxPoint x="540" y="200" />
              <mxPoint x="500" y="200" />
              <mxPoint x="500" y="273" />
            </Array>
          </mxGeometry>
        </mxCell>
        <mxCell id="VFIWKUcViMQ6ulHDsaaw-28" value="&lt;div style=&quot;box-sizing: border-box; width: 100%; background: rgb(228, 228, 228); padding: 2px; font-size: 14px;&quot;&gt;&lt;b&gt;product&lt;/b&gt;&lt;/div&gt;&lt;table cellspacing=&quot;0&quot; cellpadding=&quot;2&quot; style=&quot;width: 100%; font-size: 14px;&quot;&gt;&lt;tbody style=&quot;font-size: 14px;&quot;&gt;&lt;tr style=&quot;font-size: 14px;&quot;&gt;&lt;td style=&quot;font-size: 14px;&quot;&gt;PK&lt;/td&gt;&lt;td style=&quot;font-size: 14px;&quot;&gt;&lt;u&gt;&lt;b&gt;product_id&lt;/b&gt;&lt;/u&gt;&lt;br style=&quot;font-size: 14px;&quot;&gt;&lt;/td&gt;&lt;/tr&gt;&lt;tr style=&quot;font-size: 14px;&quot;&gt;&lt;td style=&quot;font-size: 14px;&quot;&gt;&lt;br&gt;&lt;/td&gt;&lt;td style=&quot;font-size: 14px;&quot;&gt;name&lt;br style=&quot;font-size: 14px;&quot;&gt;&lt;/td&gt;&lt;/tr&gt;&lt;tr style=&quot;font-size: 14px;&quot;&gt;&lt;td style=&quot;font-size: 14px;&quot;&gt;&lt;br&gt;&lt;br&gt;&lt;br&gt;&lt;br&gt;FK&lt;/td&gt;&lt;td style=&quot;font-size: 14px;&quot;&gt;description&lt;br style=&quot;font-size: 14px;&quot;&gt;price&lt;br style=&quot;font-size: 14px;&quot;&gt;quanity&lt;br&gt;&lt;br&gt;product_category_id&lt;/td&gt;&lt;/tr&gt;&lt;/tbody&gt;&lt;/table&gt;" style="verticalAlign=top;align=left;overflow=fill;html=1;whiteSpace=wrap;fontFamily=Times New Roman;fontSize=14;" vertex="1" parent="1">
          <mxGeometry x="450" y="10" width="180" height="150" as="geometry" />
        </mxCell>
        <mxCell id="VFIWKUcViMQ6ulHDsaaw-29" value="&lt;div style=&quot;box-sizing: border-box; width: 100%; background: rgb(228, 228, 228); padding: 2px; font-size: 14px;&quot;&gt;&lt;b&gt;user&lt;/b&gt;&lt;/div&gt;&lt;table cellspacing=&quot;0&quot; cellpadding=&quot;2&quot; style=&quot;width: 100%; font-size: 14px;&quot;&gt;&lt;tbody style=&quot;font-size: 14px;&quot;&gt;&lt;tr style=&quot;font-size: 14px;&quot;&gt;&lt;td style=&quot;font-size: 14px;&quot;&gt;PK&lt;/td&gt;&lt;td style=&quot;font-size: 14px;&quot;&gt;&lt;b&gt;&lt;u&gt;user_id&lt;/u&gt;&lt;/b&gt;&lt;/td&gt;&lt;/tr&gt;&lt;tr style=&quot;font-size: 14px;&quot;&gt;&lt;td style=&quot;font-size: 14px;&quot;&gt;&lt;br&gt;&lt;/td&gt;&lt;td style=&quot;font-size: 14px;&quot;&gt;username&lt;/td&gt;&lt;/tr&gt;&lt;tr style=&quot;font-size: 14px;&quot;&gt;&lt;td style=&quot;font-size: 14px;&quot;&gt;&lt;/td&gt;&lt;td style=&quot;font-size: 14px;&quot;&gt;email&lt;br style=&quot;font-size: 14px;&quot;&gt;password&lt;/td&gt;&lt;/tr&gt;&lt;/tbody&gt;&lt;/table&gt;" style="verticalAlign=top;align=left;overflow=fill;html=1;whiteSpace=wrap;fontFamily=Times New Roman;fontSize=14;" vertex="1" parent="1">
          <mxGeometry x="290" y="240" width="180" height="160" as="geometry" />
        </mxCell>
        <mxCell id="VFIWKUcViMQ6ulHDsaaw-30" style="edgeStyle=orthogonalEdgeStyle;rounded=0;orthogonalLoop=1;jettySize=auto;html=1;exitX=1;exitY=0.5;exitDx=0;exitDy=0;entryX=0;entryY=0.929;entryDx=0;entryDy=0;entryPerimeter=0;" edge="1" parent="1" source="VFIWKUcViMQ6ulHDsaaw-27" target="VFIWKUcViMQ6ulHDsaaw-28">
          <mxGeometry relative="1" as="geometry">
            <mxPoint x="440" y="150" as="targetPoint" />
          </mxGeometry>
        </mxCell>
      </root>
    </mxGraphModel>
  </diagram>
</mxfile>
